<svg width="307" height="240" viewBox="0 0 307 240" fill="none" xmlns="http://www.w3.org/2000/svg">
<path d="M58.5088 237.272C58.0134 237.388 56.0095 237.73 55.1427 237.823C56.1372 237.746 60.2891 236.902 58.5088 237.272ZM1.62987 181.302C1.744 182.033 1.8637 182.763 1.98897 183.492C1.63972 181.42 1.241 178.621 1.01775 176.684C0.980553 176.367 1.08792 177.189 0.999253 176.438C0.912873 175.687 0.91446 175.833 0.795668 174.743C0.637591 173.524 0.194979 167.893 0.139482 165.944C-0.179914 158.644 0.0132846 151.253 1.09503 143.989C0.143421 151.495 1.04005 143.928 1.46324 141.833C1.59018 141.42 1.32705 141.379 2.92245 135.362C3.04078 134.951 3.16892 134.515 3.30818 134.055C4.79905 129.47 3.29228 133.658 6.10016 126.121C3.89864 131.911 5.89546 126.134 7.97056 121.754C8.2733 120.959 11.4082 114.953 13.1479 112.516C13.7179 111.656 14.6026 110.372 15.425 109.297C15.9986 108.548 16.4335 108 17.3293 106.936C21.5102 101.993 26.4865 97.828 32.2042 94.7399C28.8916 96.6045 34.8283 93.3219 35.148 93.2895C36.5266 92.5935 30.2864 95.7448 32.7487 94.4866C34.7051 93.4581 36.7304 92.5625 38.8017 91.8073C40.3663 91.2378 41.9687 90.7955 43.5912 90.4426C40.4869 91.1043 47.7095 89.5415 49.0869 89.5815C48.7799 89.6165 53.1991 89.0528 58.0213 89.6356C62.9003 90.0375 67.7949 92.521 68.7769 93.623C69.0061 93.8139 68.3728 93.281 68.5522 93.4262C68.6415 93.504 68.9483 93.7145 69.5958 94.3799C70.2028 95.0415 71.2652 96.1953 71.8597 98.4145C72.0824 99.3779 71.9864 99.0287 72.0687 99.5271C72.1273 99.8212 72.3357 101.723 71.8867 103.649C71.8231 103.945 71.9536 103.285 71.9565 103.225C71.9218 103.176 71.9944 103.84 70.9877 106.595C70.678 107.392 70.2134 108.353 69.3442 109.312C70.6236 107.486 68.7371 111.495 64.0038 111.858C59.4359 112.352 54.5948 109.639 53.2796 108.756C53.8307 109.11 54.3957 109.442 54.9738 109.748C52.1391 108.175 51.7577 107.686 51.1664 107.266C49.8838 106.254 48.4555 104.882 47.2686 103.394C46.2962 102.185 45.6125 100.842 45.1534 99.7137C44.0677 96.6921 44.0472 96.6621 43.5421 92.9799C43.634 93.8582 43.7596 94.733 43.9266 95.5997C43.4321 93.0738 43.2772 90.5026 43.3166 87.9465C43.4088 93.8681 43.2573 86.6672 43.3764 86.1964C43.4179 85.4442 43.3616 86.5266 43.4399 85.2667C43.4545 85.1368 43.4061 85.3219 43.592 83.3842C44.0668 79.3482 44.0587 79.9958 44.3431 78.3144C44.3828 78.1625 44.225 78.6906 44.8562 75.8123C47.2554 66.7665 44.7703 75.8404 44.7735 76.2103C44.7332 76.684 45.1983 73.5053 43.8687 81.3421C44.2575 78.7005 44.3678 78.4473 44.4147 78.1506C44.4243 77.8823 45.4731 73.3756 45.5803 73.1426C46.1995 70.9566 45.6386 72.8735 45.7589 72.4478C45.8005 72.0794 47.6098 66.8083 48.2081 65.6269C49.4009 63.2222 47.4113 66.9838 46.1251 71.2667C45.8982 71.8848 47.5039 67.2307 47.6559 67.0189C50.2774 61.2173 48.8384 64.4389 49.4322 63.1734C49.4888 63.0681 49.5703 62.9208 49.6624 62.76C50.1393 61.9262 50.9261 60.6671 49.879 62.3661C52.9467 57.4835 51.1053 60.4602 51.2931 60.1346C51.5939 59.6669 52.7691 58.023 52.931 57.8265C53.1545 57.5339 52.3856 58.558 53.2673 57.4041C53.4136 57.2126 54.8543 55.3596 52.9881 57.7393C55.4878 54.5523 55.3395 54.8691 56.263 53.8489C58.1442 51.7897 57.6764 52.4078 58.4546 51.6297C60.5645 49.6186 59.9463 50.1979 60.0527 50.0855C60.7621 49.2638 67.1068 44.2926 68.8498 43.2839C68.1644 43.7027 63.6279 46.9609 62.6869 47.8147C59.447 50.4522 67.3218 44.181 64.9569 46.0835C65.9724 45.3085 66.9976 44.5673 68.0477 43.8459C70.0226 42.5857 67.1879 44.3173 72.537 41.035C73.4008 40.4752 68.756 43.3556 69.6877 42.7752C70.2129 42.4026 73.3343 40.5298 73.4021 40.5063C73.4534 40.4551 70.6402 42.1431 71.0807 41.8767C71.9563 41.137 82.6042 35.6029 74.5363 39.8692C76.7582 38.6495 77.9533 38.0859 79.9376 37.1286C81.2443 36.5587 73.8817 39.7566 84.9005 34.9001C85.1373 34.7903 80.4791 36.7996 80.373 36.8846C80.2052 36.964 81.0546 36.6065 81.1976 36.5445C81.6434 36.1629 93.1101 31.7214 95.6684 31.188C94.6559 31.3756 104.64 28.801 105.767 28.6895C106.059 28.6285 104.963 28.8393 105.275 28.7745C107.22 28.3372 112.546 27.4648 115.033 27.1936C117.813 26.8671 117.462 26.9169 117.617 26.8959C118.843 26.776 117.864 26.878 118.614 26.807C119.742 26.6336 127.551 26.2527 127.946 26.3071C128.061 26.3053 126.784 26.3111 128.489 26.2864C128.785 26.3024 128.597 26.2298 133.644 26.3579C139.721 26.6008 129.425 26.1965 131.951 26.2801C135.852 26.4038 135.729 26.4268 136.785 26.4815C137.15 26.5046 139.876 26.6906 142.82 27.0451C140.705 26.7961 138.584 26.6111 136.462 26.4867C138.549 26.5951 142.596 26.9931 144.301 27.2432C145.133 27.3599 144.444 27.2696 146.254 27.5382C146.636 27.6113 148.167 27.7524 143.425 27.1262C143.048 27.0642 145.301 27.3602 146.348 27.5256C146.506 27.5505 147.134 27.6207 148.459 27.8647C148.669 27.9034 147.218 27.6772 148.804 27.9607C149.621 28.1122 151.218 28.3877 154.23 28.9783C154.515 29.0343 153.525 28.8275 153.804 28.882C153.993 28.9156 156.262 29.3867 156.514 29.4425C156.77 29.4957 155.676 29.2556 155.981 29.3186C157.552 29.6419 159.584 30.1224 156.369 29.4228C157.447 29.6558 158.523 29.8972 159.591 30.1462C158.45 29.8603 161.279 30.5213 162.758 30.8932C172.21 33.3595 165.885 31.6914 167.512 32.1102C170.114 32.8372 168.125 32.2864 171.968 33.433C172.314 33.5674 167.723 32.01 176.714 34.9724C175.393 34.5183 174.065 34.0823 172.732 33.6637C173.499 33.9127 177.525 35.2391 177.828 35.3607C181.324 36.6267 178.976 35.7265 184.123 37.7265C184.579 37.908 185.575 38.3182 186.546 38.7235C190.583 40.3981 181.223 36.5105 180.939 36.4716C180.85 36.3431 190.919 40.5162 191.225 40.7505C192.673 41.4022 186.708 38.7504 187.838 39.2708C188.181 39.3729 196.879 43.2965 201.857 45.9846C203.298 46.7392 204.381 47.2979 205.006 47.6204C208.18 49.2543 209.637 49.9997 209.658 49.9724C210.559 50.4595 211.374 50.8311 211.778 51.0279C216.755 53.4291 216.781 53.4374 221.112 55.3581C222.095 55.7874 222.863 56.1248 223.227 56.2768C223.427 56.3597 223.062 56.1953 224.038 56.5998C225.362 57.2256 233.626 60.3045 234.266 60.4324C234.889 60.657 230.743 59.2482 231.478 59.5034C234.482 60.5624 237.369 61.449 240.461 62.2292C241.734 62.5455 241.084 62.3914 241.638 62.5257C241.864 62.6061 246.341 63.5439 246.156 63.486C245.653 63.6288 232.048 59.9023 235.638 60.8624C236.326 61.082 238.754 61.7868 238.37 61.6545C243.362 63.0606 248.482 63.9062 253.621 64.8034C260.891 66.084 268.437 65.5388 275.606 63.7546C268.84 65.4866 260.852 66.1203 253.619 64.8144C253.38 64.7718 253.141 64.7299 252.904 64.6884C251.874 64.5088 248.4 63.9025 248.822 63.9845C250.344 64.2564 251.958 64.5292 253.618 64.8237C258.842 65.7762 264.656 65.6553 269.307 64.9952C269.502 64.9682 268.785 65.0772 269.518 64.9765C270.898 64.833 275.31 63.8909 276.035 63.6643C276.163 63.6443 273.67 64.2491 274.431 64.0769C276.386 63.636 276.863 63.4542 278.515 62.9641C279.847 62.735 288.152 59.385 290.003 58.0905C292.103 56.9959 284.141 61.1092 284.684 60.6987C290.241 58.297 295.534 54.9911 299.495 50.8727C299.563 50.7998 298.957 51.424 299.83 50.5032C301.317 48.8695 301.645 48.3838 302.272 47.5236C303.036 46.6253 304.857 42.9782 304.942 42.4245C304.969 42.3587 304.694 43.1433 304.645 43.2535C303.967 44.8933 303.59 45.4095 303.521 45.557C303.218 46.0952 302.917 46.5926 302.605 47.0599C302.09 47.8184 301.793 48.2259 301.031 49.1618C300.496 49.8002 301.026 49.1929 300.499 49.8048C300.331 50.0596 298.078 52.3034 297.843 52.5011C297.623 52.6137 305.15 46.6283 305.824 38.5537C306.468 32.7773 304.936 27.6257 304.555 26.6315C305.262 28.7339 305.701 30.9583 305.869 33.1715C305.666 28.598 303.342 23.5576 303.151 23.2453C294.939 7.96822 276.302 2.33657 259.788 0.952795C256.78 0.800717 258.422 0.752495 253.441 0.788991C254.709 0.762973 256.024 0.777466 257.3 0.827358C254.736 0.447305 243.417 1.51567 241.84 2.65847C241.656 2.75954 241.331 2.75729 239.617 3.75761C239.402 3.89399 239.168 4.04424 238.915 4.20983C236.844 5.59942 236.534 5.87391 235.51 6.70649C234.639 7.42901 233.769 8.30759 233.538 8.55699C233.365 8.74224 233.291 8.79926 232.885 9.26366C231.676 10.756 232.633 9.5212 231.521 11.0648C231.765 10.6843 232.04 10.297 232.321 9.93544C230.845 11.7414 229.667 14.6881 231.145 11.6288C231.442 11.1282 231.189 11.562 231.42 11.1889C233.822 7.61944 235.969 6.34443 236.743 5.67088C237.587 5.04245 237.334 5.21854 236.524 5.83302C234.852 7.01195 231.198 10.542 230.271 13.4486C229.958 14.139 229.25 16.6267 229.567 19.0144C229.813 21.3927 230.691 23.5068 230.726 23.6389C230.868 24.0163 230.317 22.6273 231.023 24.4545C231.07 24.5738 231.515 25.6601 232.164 26.9717C233.531 30.0025 237.301 33.0416 235.129 31.0743C234.733 30.6997 233.03 28.845 232.154 26.9769C231.635 25.9255 231.222 24.9719 231.038 24.5223C231.306 25.1898 231.689 26.0512 232.146 26.9806C233.61 30.2126 237.368 33.0884 237.903 33.3993C240.631 35.3659 232.697 29.5743 238.82 34.0361C243.954 36.7897 239.108 34.2541 241.115 35.2489C241.682 35.5169 243.503 36.2809 245.259 36.5748C247.007 36.9087 248.602 36.7277 248.507 36.7238C249.614 36.6035 249.827 36.4995 249.817 36.5165C249.806 36.5232 249.555 36.5817 249.69 36.5527C249.815 36.523 250.943 36.2961 252.039 35.6405C253.156 35.0101 254.102 33.9174 254.502 33.2956C254.513 33.2794 254.523 33.2635 254.534 33.248C254.574 33.1871 254.546 33.2351 254.507 33.2988C254.452 33.3865 254.377 33.5007 254.437 33.4164C254.452 33.3955 254.478 33.3575 254.514 33.3039C254.746 32.9758 255.311 32.0099 255.617 31.022C255.942 30.0406 256.034 29.0861 256.042 29.0093C256.062 28.9036 255.906 29.8982 255.965 29.4883C256.005 29.253 256.154 28.1163 256.038 27.0147C255.946 25.9113 255.592 24.8928 255.551 24.7924C255.496 24.6427 255.911 25.7475 256.016 26.8552C256.144 27.9594 256.013 29.0053 256.045 28.5874C256.389 26.2399 254.832 22.5888 253.521 21.763C253.863 21.9341 255.2 23.7128 255.404 24.4789C255.34 24.3126 254.811 23.1276 254.115 22.3728C253.437 21.6069 252.768 21.2023 253.416 21.6753C252.603 21.0649 253.157 21.4799 252.677 21.1725C252.568 21.0562 251.233 20.4963 250.949 20.4845C250.933 20.4809 251.283 20.5607 251.596 20.6752C251.904 20.7844 252.173 20.9185 252.037 20.8573C251.799 20.7397 250.632 20.3015 249.4 20.3382C248.185 20.3385 246.999 20.7073 246.832 20.7573C246.336 20.9188 246.951 20.6832 247.761 20.5103C248.567 20.325 249.537 20.3113 249.694 20.3216C249.716 20.3204 248.951 20.2874 248.19 20.4125C247.426 20.5244 246.667 20.7717 246.642 20.7792C246.554 20.8015 247.341 20.5306 248.118 20.4063C248.901 20.2674 249.659 20.2935 249.464 20.2836C248.615 20.2807 247.767 20.4225 246.94 20.6613C248.5 20.1554 251.023 19.998 252.812 21.1958C254.628 22.3308 255.387 24.251 255.626 24.9719C254.914 22.5985 252.858 20.7798 251.012 20.4293C249.176 20.0187 247.866 20.4313 247.882 20.3811C247.877 20.3055 249.992 20.1562 249.91 20.213C249.759 20.192 248.932 20.166 248.156 20.3024C247.376 20.4251 246.642 20.6737 246.587 20.6911C246.499 20.719 246.458 20.7323 246.458 20.7315C246.458 20.7315 246.458 20.7315 246.458 20.7315C246.464 20.7281 247.467 20.3621 248.542 20.2418C249.615 20.0947 250.715 20.2851 250.81 20.3109C250.982 20.3452 250.621 20.2502 250.197 20.2C249.783 20.146 249.304 20.1485 249.31 20.1463C249.334 20.1421 250.117 20.1316 250.732 20.2536C251.357 20.3683 251.821 20.5472 251.339 20.3853C250.373 19.9471 247.69 20.2344 247.624 20.3237C247.377 20.3843 248.379 20.1022 249.494 20.1091C250.618 20.0851 251.752 20.4848 251.81 20.5152C251.845 20.5279 251.287 20.3028 250.672 20.1979C250.062 20.0825 249.416 20.0882 249.382 20.0877C249.322 20.0431 251.222 20.1677 251.902 20.5133C252.16 20.616 251.919 20.5051 251.637 20.4061C251.351 20.3042 251.031 20.2289 251.168 20.2617C251.258 20.2796 252.401 20.5753 253.317 21.2858C254.254 21.966 254.886 22.9607 254.941 23.0485C255.123 23.3147 254.551 22.4577 254.632 22.5832C254.794 22.73 255.491 23.9759 255.392 23.8173C255.367 23.7615 254.753 22.44 253.677 21.5299C252.632 20.5794 251.25 20.2256 251.278 20.2311C251.501 19.911 256.392 23.1806 251.74 20.3381C251.711 20.2916 250.411 19.9925 250.368 20.0191C249.958 19.9658 250.815 20.0552 251.124 20.1414C251.276 20.1783 251.297 20.1761 250.956 20.0972C250.621 20.0322 249.894 19.8574 248.59 19.9885C251.047 19.7487 252.279 20.5288 252.781 20.7855C253.29 21.093 253.197 21.038 252.887 20.8383C252.283 20.3808 250.534 19.9501 251.243 20.1203C251.514 20.1761 252.58 20.5115 253.401 21.1433C254.238 21.7509 254.797 22.5503 254.803 22.5536C254.613 22.2294 253.754 21.3575 253.403 21.13C253.311 21.06 253.969 21.5253 254.448 22.0835C254.935 22.6308 255.268 23.2119 255.068 22.8802C254.965 22.7127 254.388 21.8647 253.609 21.2571C252.848 20.6292 251.938 20.2918 251.872 20.2696C250.498 19.8203 252.192 20.3498 251.888 20.2541C251.792 20.2135 251.218 20.0092 250.638 19.9204C250.055 19.822 249.494 19.827 249.461 19.8265C249.416 19.8289 250.148 19.8005 250.949 19.9684C251.756 20.1194 252.584 20.5198 252.852 20.6832C253.058 20.805 252.78 20.6251 252.47 20.4715C252.161 20.3148 251.816 20.1905 251.973 20.248C254.047 20.8123 256.475 24.5281 253.832 21.3427C253.673 21.1342 252.329 20.3263 252.267 20.3474C251.818 20.1598 252.28 20.3102 252.859 20.6373C253.444 20.9567 254.082 21.5279 254.259 21.714C254.95 22.2713 251.794 19.5814 254.4 21.8387C252.583 20.0346 250.896 19.4475 247.937 19.8699C252.251 19.0479 254.53 21.9021 254.81 22.2713C254.997 22.5238 254.894 22.2963 254.268 21.6389C253.65 21.0245 252.328 19.8672 249.961 19.7058C251.447 19.8259 252.06 20.1707 252.431 20.3194C252.792 20.4902 252.923 20.5553 253.296 20.8003C253.538 20.939 254.497 21.7242 255.007 22.4754C255.527 23.2133 255.786 23.7398 255.311 22.8697C255.25 22.7606 254.848 22.1591 254.436 21.7349C254.031 21.3068 253.665 21.0297 253.989 21.2919C257.783 26.3286 254.3 21.2239 254.09 21.3712C254.09 21.3667 255.756 22.7415 256.408 25.3504C257.13 27.9013 256.624 31.4053 255.038 33.6558C253.808 35.5272 252.086 36.4025 251.397 36.6836C248.506 37.8949 245.695 37.3098 245.079 37.2197C242.963 36.7644 244.719 37.139 244.248 37.0303C244.009 36.9789 242.393 36.5685 240.911 35.8826C239.418 35.2215 238.072 34.3304 237.947 34.2446C236.971 33.5718 237.97 34.2425 237.869 34.171C236.919 33.6306 232.97 30.4222 231.576 27.2612C231.101 26.2999 230.733 25.4665 230.52 24.9532C230.522 25 231.288 26.7191 231.566 27.2663C231.667 27.4741 231.69 27.5232 231.56 27.269C231.493 27.1359 231.385 26.9194 231.232 26.5985C229.825 23.574 229.919 23.3219 229.866 23.2504C226.194 15.2558 232.408 6.8926 239.223 3.13195C245.763 -0.345776 253.301 -0.128814 260.401 0.267936C260.24 0.0682814 250.247 0.0388325 250.042 0.257287C248.693 -0.105364 265.542 0.272397 267.521 1.12701C265.969 0.860315 264.441 0.643316 262.867 0.46786C265.535 0.689891 271.376 1.71628 275.098 2.78354C276.305 3.11299 273.991 2.46828 274.039 2.48801C275.402 2.82395 277.561 3.48263 275.94 3.01732C279.227 3.99203 278.744 3.86862 281.218 4.765C281.344 4.81588 280.293 4.39617 282.237 5.14564C283.174 5.44874 287.886 7.65296 288.483 8.04068C288.742 8.16371 286.41 6.91054 286.096 6.81223C280.935 4.46552 284.444 6.07119 282.416 5.21155C282.089 5.12205 282.876 5.23081 277.613 3.49451C278.655 3.70579 284.612 6.01201 285.572 6.55565C287.657 7.42511 279.112 3.72686 277.411 3.42002C278.176 3.64052 276.791 3.19776 274.789 2.65551C272.597 2.08034 273.557 2.32559 272.361 2.03522C269.09 1.3078 270.44 1.61076 267.728 1.09661C270.378 1.5865 263.052 0.309456 260.887 0.220262C264.396 0.508285 267.887 1.03364 271.33 1.78869C271.134 1.74302 270.938 1.69816 270.742 1.65409C271.646 1.84625 272.556 2.05653 273.455 2.28192C273.311 2.24814 273.167 2.215 273.021 2.18189C277.665 3.33979 278.736 3.84944 279.112 3.94999C283.879 5.54673 289.184 8.03161 293.338 11.0184C293.919 11.5197 293.694 10.9529 297.822 14.7263C299.081 15.9909 297.903 14.7902 299.287 16.2567C300.991 18.1352 300.883 18.1589 301.346 18.7524C302.625 20.497 303.242 21.6728 303.345 21.8426C304.691 24.1562 306.027 27.8966 306.439 30.7962C306.448 30.8506 306.211 29.3371 306.512 31.2272C306.587 31.7326 307.019 34.8878 306.634 38.63C306.495 40.1098 306.129 41.6436 305.609 43.0466C306.09 41.7594 306.432 40.4161 306.599 39.0447C306.553 39.8526 305.871 43.0739 304.557 45.4257C303.305 47.8019 301.908 49.4278 302.758 48.3413C303.852 47.0328 305.636 43.284 305.724 42.8241C305.238 44.6543 302.172 50.1632 297.614 53.8465C293.194 57.665 288.134 60.0598 287.428 60.4065C287.23 60.5046 288.442 59.8942 288.169 60.028C287.983 60.174 283.685 62.1095 283.089 62.2832C282.745 62.4211 284.667 61.6445 284.509 61.699C284.397 61.8184 278.872 63.803 278.534 63.8419C279.922 63.4602 283.726 62.054 281.733 62.7945C281.479 62.8919 280.137 63.3457 279.819 63.4453C276.908 64.4536 285.624 61.4699 286.843 60.682C281.652 63.2604 272.957 65.7529 266.25 66.204C263.55 66.4302 270.245 65.8037 267.195 66.0972C260.854 66.5394 265.51 66.2437 265.313 66.2657C263.738 66.4599 258.354 66.2876 258.353 66.2635C256.054 66.0585 256.791 66.1815 253.571 65.6825C253.992 65.7588 254.415 65.8289 254.839 65.893C254.426 65.8356 253.962 65.7637 253.466 65.6763C249.681 65.0435 243.895 63.9104 244.391 63.9794C245.895 64.2956 249.785 65.0034 250.118 65.0569C250.46 65.1171 251.227 65.2275 253.476 65.6239C254.461 65.7981 255.744 65.9987 257.41 66.1567C258.772 66.2574 255.3 65.9819 253.477 65.616C252.338 65.4126 251.823 65.3196 253.479 65.6051C253.552 65.6179 253.63 65.6312 253.713 65.6451C253.64 65.6326 253.562 65.619 253.479 65.6044C249.81 65.1113 236.817 62.3423 235.029 61.5209C234.808 61.445 235.833 61.8276 232.599 60.7441C231.073 60.2246 234.774 61.4622 234.071 61.2183C232.011 61.0284 210.216 51.6524 201.476 46.7126C200.149 46.0177 199.095 45.4811 198.416 45.1377C198.077 44.9669 198.206 45.023 197.87 44.854C196.847 44.3302 193.073 42.5066 191.198 41.6599C195.063 43.454 187.547 39.986 185.583 39.2256C182.629 38.0104 182.811 38.0891 181.525 37.5848C176.579 35.6188 168.687 33.2144 164.682 32.1863C164.903 32.2471 157.747 30.4371 154.448 29.8087C151.869 29.2782 148.113 28.6157 151.602 29.2791C150.63 29.093 149.658 28.9133 148.665 28.7356C145.125 28.1 141.499 27.6648 138.18 27.4159C137.479 27.3645 138.444 27.4244 137.249 27.3413C137.14 27.3349 136.991 27.3296 135.963 27.2717C127.47 26.9549 131.6 27.1343 130.011 27.0807C129.122 27.0749 128.465 27.0805 127.983 27.0867C132.941 26.9815 138.647 27.3966 140.167 27.5606C138.875 27.3149 129.201 26.9215 126.364 27.1139C126.266 27.1164 126.608 27.0966 126.508 27.0993C126.506 27.0993 126.504 27.0994 126.502 27.0994C125.437 27.0736 118.684 27.5346 120.076 27.4611C120.449 27.4358 123.555 27.172 127.249 27.0996C126.249 27.1244 126.996 27.1192 126.819 27.1237C124.68 27.1496 119.448 27.4807 117.6 27.6966C117.177 27.7395 117.208 27.7444 117.139 27.7516C115.458 27.9341 116.145 27.8319 114.425 28.0675C111.381 28.4054 120.126 27.4017 119.513 27.5023C118.988 27.1524 99.7094 30.4785 99.8486 30.8444C99.7828 30.8591 99.5212 30.9223 98.9876 31.0596C97.7992 31.3292 92.5809 32.9034 91.706 33.2375C91.5564 33.2886 91.6227 33.2878 91.4372 33.3508C90.9557 33.4694 84.718 35.7589 82.4711 36.8366C83.699 36.2957 84.9367 35.7796 86.1823 35.2877C78.7099 38.4049 79.9318 38.0505 82.3652 36.9066C82.4883 36.852 82.6085 36.7996 82.7264 36.7479C84.6485 35.8975 87.1344 34.9353 87.1798 34.9227C87.2333 34.6786 74.8028 40.4753 77.201 39.3877C77.5097 39.1701 83.2632 36.4716 80.4034 37.7981C79.8915 38.0107 76.2532 39.8533 76.0743 39.9719C74.7663 40.5758 82.7617 36.6077 81.7884 37.1182C79.8213 38.0175 77.3196 39.2403 75.159 40.4371C74.1679 40.9858 73.9348 41.1374 73.8135 41.2057C72.0178 42.2506 73.0218 41.6569 72.4258 42.0084C72.0877 42.1797 68.657 44.4043 69.2925 43.9661C58.4375 51.982 66.0023 45.7844 73.163 41.5879C70.8837 42.8856 66.6316 45.7386 64.8288 47.1847C64.1803 47.691 64.5715 47.3893 63.4794 48.2682C61.029 49.7779 51.8705 59.6163 50.3956 63.1812C50.3712 63.2237 50.3476 63.265 50.3249 63.3049C50.3491 63.2622 50.3725 63.2209 50.3953 63.181C51.3481 61.5598 51.1038 61.946 50.383 63.174C50.3387 63.2511 50.2926 63.3324 50.2448 63.4177C49.4398 64.9046 50.1295 63.6587 49.9739 63.9505C49.6381 64.1734 46.707 71.5454 46.5004 72.8635C48.3019 67.1794 47.8274 68.43 46.3623 73.287C46.5555 72.5787 46.7614 71.8742 46.9796 71.1772C45.9998 73.9892 44.7472 80.1258 44.6 81.8411C44.5648 82.1081 44.7041 81.1503 44.6848 81.3004C44.4089 82.7869 44.0818 87.9021 44.1415 88.1413C44.1321 88.3412 44.2072 86.1618 44.1848 86.9712C44.1793 87.1369 44.0825 89.2479 44.2259 91.3122C44.2796 92.074 44.2573 91.6144 44.2716 91.8058C44.439 93.4111 44.2448 92.4809 44.7368 95.3739C45.188 97.4562 45.5588 99.0732 47.0282 101.611C44.9097 97.6654 45.1892 96.8257 45.3693 97.8169C45.6391 98.7646 46.5864 101.271 47.928 102.864C48.1365 103.123 48.3421 103.366 48.5375 103.589C49.0067 104.039 48.4812 103.782 51.4062 106.35C45.373 100.656 52.9338 108.249 55.163 108.887C55.2699 108.94 55.2918 108.988 56.2546 109.446C56.3364 109.48 56.2191 109.438 57.1291 109.82C61.5447 111.464 62.4999 110.945 62.3721 111.056C62.2638 111.061 61.2317 110.976 62.1057 111.051C62.481 111.079 63.8145 111.15 65.1366 110.825C66.4757 110.533 67.6724 109.754 68.1102 109.358C68.3066 109.171 68.2623 109.302 68.9606 108.51C69.5349 107.816 69.9386 107.049 70.2232 106.302C70.5513 105.438 70.7592 104.747 70.9274 104.071C70.9263 103.919 71.1088 103.946 71.3257 101.557C71.3614 100.872 71.3217 100.151 71.3326 101.082C71.326 102.457 70.9651 104.377 70.2157 106.299C69.3647 108.822 66.9147 110.548 64.9327 110.86C63.3843 111.057 64.9949 111.086 66.8421 110.181C68.7712 109.322 70.0419 106.892 70.2044 106.294C70.2266 106.237 70.2421 106.195 70.2508 106.172C70.2667 106.13 70.2439 106.192 70.2051 106.295C70.0838 106.614 69.7856 107.306 70.2108 106.297C70.2493 106.197 70.2927 106.082 70.3406 105.951C70.9706 104.32 71.7435 101.085 71.01 98.5697C71.0261 98.3654 70.212 96.4808 70.2109 96.5877C70.2347 96.6231 70.6375 97.3243 70.8701 98.0311C71.1123 98.7264 71.2129 99.405 71.1773 99.1754C71.2196 99.0994 70.6187 97.1968 70.4424 96.9856C70.3121 96.6926 69.8958 95.9332 69.62 95.5971C68.9141 94.7452 69.3759 95.2997 68.8853 94.776C67.9801 93.4174 62.9236 91.2646 62.7085 91.376C63.5628 91.6327 64.4048 91.9399 65.225 92.3166C60.5757 90.5333 62.5087 91.4018 61.8543 91.1527C61.1165 90.9786 61.3272 90.9814 59.6689 90.6729C59.3314 90.4324 52.2383 90.0526 52.3668 90.1899C56.2929 90.1665 54.8337 90.2328 55.0153 90.216C55.7058 90.2433 56.5788 90.2863 57.4963 90.3826C63.8961 91.3381 57.4465 90.3462 58.9552 90.5874C59.4676 90.6595 60.5101 90.8479 60.7193 90.8972C61.4304 91.0532 61.4386 91.0707 61.9025 91.1876C62.9877 91.4803 61.7242 91.1193 61.8116 91.1455C62.8265 91.2985 66.4367 92.821 64.176 91.913C65.5288 92.4651 65.6903 92.5367 66.6845 93.1148C68.6032 94.3775 65.7351 92.4615 64.8283 92.1868C61.6994 91.0083 60.6846 90.7 55.9092 90.2911C54.1813 90.1767 52.1284 90.2324 51.3263 90.2768C50.8182 90.2364 46.0536 90.7327 45.9371 90.8647C44.1054 91.1428 41.2445 91.7878 39.4538 92.4386C39.3124 92.4881 39.1889 92.5327 39.0806 92.5726C37.9397 92.9996 38.3564 92.866 38.2202 92.9169C37.9826 92.9989 36.0701 93.7863 35.4313 94.0973C34.6909 94.4475 35.0592 94.2716 33.8898 94.8539C31.0093 96.3573 31.1143 96.3737 30.8168 96.5275C27.5096 98.5702 28.9888 97.7105 28.2639 98.1811C27.4203 98.3952 18.9556 105.823 17.6857 107.883C18.2937 107.146 18.9327 106.41 19.579 105.705C18.3992 106.955 17.262 108.39 17.2237 108.405C17.0163 108.675 14.8343 111.51 14.2641 112.402C14.0272 112.751 14.0485 112.729 13.7562 113.169C12.5789 114.868 10.3041 118.913 9.82795 119.933C7.60966 124.221 13.3729 113.294 14.1627 112.625C12.8681 114.122 7.81254 123.925 10.1557 119.426C10.5142 118.733 11.1694 117.506 11.3875 117.126C12.8763 114.55 11.7114 116.581 11.8278 116.382C12.0282 116.028 13.0292 114.36 13.3204 113.924C13.4213 113.783 12.8005 114.707 14.3812 112.349C13.4929 113.436 9.54226 120.374 9.19036 121.369C9.06646 121.721 9.94254 119.557 7.2111 125.815C7.24366 125.742 7.27628 125.669 7.30895 125.597C5.95738 128.865 4.80917 132.221 3.83204 135.623C3.75961 135.876 3.68854 136.13 3.61882 136.387C3.65518 136.245 3.74963 135.893 3.82523 135.621C3.9308 135.243 3.99611 135.007 3.81824 135.619C3.76151 135.816 3.67934 136.105 3.56859 136.518C3.17868 138.013 3.47976 136.91 3.44419 137.046C2.22186 138.236 0.208674 162.851 1.16654 167.642C1.23832 169.268 1.64361 173.784 1.69405 174.125C1.85392 176.186 2.88696 183.432 3.19259 184.861C3.35533 185.758 3.21067 184.904 3.35685 185.705C3.49482 186.448 3.34141 185.68 3.38214 185.901C3.53869 187.773 6.98966 201.495 8.3478 204.581C7.53265 202.703 4.75065 192.828 4.88103 193.018C4.88516 193.062 5.48722 195.476 5.63171 195.971C5.83477 196.79 6.66454 199.595 7.14705 201.088C7.20567 201.254 6.95489 200.603 7.85467 203.282C8.16467 204.194 9.02465 206.594 10.0078 208.973C10.7089 210.669 13.038 216.042 16.1129 220.591C19.0997 225.219 23.0326 228.696 23.5529 229.058C23.575 229.104 21.5496 227.287 22.9249 228.506C24.7938 230.049 23.0671 228.741 25.3377 230.434C25.3734 230.459 25.473 230.529 25.6241 230.632C26.9178 231.675 32.6047 234.645 32.8801 234.648C35.0804 235.639 28.7589 232.699 28.9154 232.642C29.0751 232.834 34.3066 235.309 34.563 235.307C34.7605 235.391 30.3899 233.675 35.6557 235.729C35.0504 235.51 34.4424 235.276 33.8396 235.027C36.324 236.005 36.5769 236.036 37.1883 236.245C39.1029 236.837 41.2021 237.381 44.387 237.837C45.2334 237.952 43.8261 237.78 43.9352 237.793C44.9476 237.945 46.2427 238.064 47.7758 238.16C47.8945 238.134 44.3198 238.104 50.5622 238.221C50.1259 238.226 49.7053 238.224 49.2741 238.216C50.1604 238.347 56.4616 237.841 57.291 237.573C59.7348 237.105 57.6131 237.564 60.0509 237.011C58.5241 237.474 65.7795 235.295 65.3364 235.317C66.3493 235.011 72.1782 232.131 74.2082 229.849C74.9188 229.163 75.9491 227.969 76.4989 226.807C77.0124 225.762 77.2391 224.8 77.2998 224.53C77.4346 223.829 77.4595 224.047 77.555 222.754C77.6645 222.436 77.4834 218.304 75.0627 215.735C74.647 215.222 73.6258 214.264 74.5285 215.111C76.2397 216.491 77.5266 220.352 77.3962 220.317C77.3968 220.292 77.146 218.937 76.4038 217.594C75.6946 216.232 74.4836 214.995 73.9283 214.533C71.3072 212.435 70.451 212.453 70.5948 212.426C70.705 212.459 71.5362 212.862 71.4569 212.825C71.1205 212.5 67.5923 211.327 67.4286 211.389C66.8087 211.225 69.3599 211.852 69.3761 211.902C69.465 211.83 65.959 211.02 66.7586 211.207C67.9419 211.313 71.0165 212.456 71.1768 212.622C73.5572 213.904 70.3352 212.053 69.3145 211.816C69.0199 211.707 70.1983 212.121 69.9528 212.034C66.1879 210.841 69.1818 211.735 66.6196 211.169C64.3067 210.835 67.2784 211.237 67.1946 211.256C67.0834 211.185 64.3179 210.844 63.865 210.873C63.7431 210.87 65.5413 210.893 67.2566 211.244C68.9855 211.563 70.5984 212.26 70.453 212.193C68.3254 211.296 65.9717 210.887 63.6602 210.833C63.4613 210.759 66.8276 211.062 67.145 211.198C67.8316 211.322 65.9256 210.968 66.0029 210.994C66.0547 210.979 68.2902 211.363 66.269 211.011C65.5511 210.914 64.0905 210.693 61.4965 210.829C65.9856 210.659 66.6731 211.137 66.2098 210.983C65.7383 210.891 64.1303 210.765 63.9883 210.77C63.7371 210.748 68.0311 210.956 62.8114 210.736C62.5787 210.716 62.9342 210.692 64.4099 210.758C65.3234 210.817 64.725 210.772 64.7332 210.769C64.7329 210.818 65.3807 210.62 68.6113 211.436C68.2888 211.133 62.9648 210.54 62.6639 210.698C62.4174 210.697 63.6192 210.688 63.1914 210.685C58.1602 210.865 61.6191 210.729 60.1684 210.811C60.018 210.762 55.3355 211.588 58.9101 210.964C65.4895 210.055 68.2086 211.325 69.2628 211.531C64.5553 209.869 58.5269 210.936 57.1241 211.266C54.9109 211.758 57.2058 211.233 56.9302 211.295C56.8382 211.301 54.9245 211.77 54.9104 211.786C53.4602 211.956 63.5081 209.818 66.6781 210.894C65.8391 210.748 64.9981 210.657 64.1292 210.612C65.305 210.666 66.4367 210.803 67.5813 211.052C62.1148 210.245 67.4157 210.849 68.7358 211.311C69.0277 211.377 65.534 210.447 69.5183 211.544C66.5904 210.694 67.5213 210.916 64.7758 210.604C64.8398 210.425 71.1017 211.518 73.0402 213.247C69.3004 210.961 68.1696 211.208 67.4526 210.954C66.6644 210.85 66.0649 210.51 62.2974 210.53C60.9142 210.571 64.4887 210.519 64.1929 210.559C63.1621 210.509 60.6803 210.484 57.7679 211.072C57.2993 211.175 59.2872 210.772 56.3484 211.387C56.0022 211.453 54.1718 211.934 54.1879 211.939C54.4376 211.843 56.2593 211.376 56.3493 211.363C56.4082 211.332 54.3691 211.86 54.3589 211.876C54.3007 211.871 56.0474 211.418 55.8026 211.482C55.2527 211.599 47.8868 213.598 57.5068 211.079C49.4994 213.155 56.4363 211.077 59.653 210.741C60.4812 210.644 60.6619 210.608 61.8501 210.539C63.3548 210.451 65.1272 210.575 65.8994 210.684C66.3219 210.737 65.3315 210.607 65.1164 210.59C64.8845 210.624 65.4511 210.401 68.8166 211.272C65.4263 210.062 59.1051 210.485 55.777 211.432C49.0485 213.248 60.4542 210.078 61.7906 210.485C62.1204 210.466 61.0135 210.52 61.2328 210.507C61.4196 210.494 63.1809 210.363 64.9929 210.523C66.8074 210.655 68.5918 211.139 68.9182 211.242C69.572 211.386 66.5058 210.631 66.3049 210.66C66.2315 210.639 68.2183 210.939 69.6016 211.442C70.9874 211.948 71.8386 212.328 69.7933 211.5C66.9309 210.257 61.263 210.373 60.346 210.547C64.7369 210.096 69.4709 210.65 73.2114 213.229C71.1878 211.813 68.7979 210.986 66.3919 210.615C71.3023 211.348 75.6359 213.921 77.4908 218.449C76.3471 215.766 75.2579 215.009 75.184 214.847C75.0489 214.713 75.6714 215.287 76.36 216.284C77.9436 218.224 78.3797 222.226 78.2658 222.296C78.2652 222.327 78.292 221.183 78.0117 219.978C77.757 218.767 77.1668 217.556 76.9859 217.238C77.5883 218.298 78.2947 220.207 78.3034 222.192C78.3548 224.174 77.7166 226.088 77.1876 227.143C76.5554 228.321 76.3654 228.644 77.2059 227.152C77.339 226.883 77.489 226.554 77.6408 226.155C77.5381 226.425 77.3938 226.775 77.2091 227.154C76.5807 228.513 75.2427 229.935 75.2732 229.9C75.3979 229.771 76.541 228.588 77.2281 227.163C78.0327 225.567 78.2475 223.862 78.1545 224.466C78.0068 225.243 77.7213 226.183 77.2362 227.167C76.9161 227.82 76.4732 228.492 75.9665 229.122C72.5067 232.98 70.6017 233.563 69.05 234.534C67.4098 235.366 65.7899 236.348 60.8734 237.697C61.0697 237.649 61.2612 237.6 61.4588 237.548C50.7947 240.505 39.0155 239.19 29.2819 233.894C28.2512 233.348 26.7651 232.501 25.1142 231.381C20.6012 228.474 16.1185 222.629 14.0564 219.09C13.4201 218.174 10.8299 213.19 10.7087 212.809C10.3616 212.108 12.2596 215.952 11.4021 214.211C11.099 213.906 7.47102 205.205 7.78745 205.808C8.13476 206.8 9.38449 209.869 9.60702 210.351C10.3792 212.094 7.69198 206.344 5.72551 199.676C3.67044 193.01 2.33228 185.523 2.21245 184.814C2.32065 185.448 2.43306 186.08 2.5497 186.711C2.20842 184.914 1.90202 183.11 1.62987 181.302ZM51.2632 238.158C52.3385 238.131 55.0528 237.919 56.6315 237.642C58.8334 237.335 62.431 236.262 60.887 236.734C57.7557 237.575 54.5071 238.051 51.2632 238.158ZM12.8744 215.035C13.8934 216.948 13.0615 215.503 12.2611 213.881C12.1758 213.696 11.5323 212.386 12.8744 215.035ZM27.7452 231.961C27.6635 231.923 26.0791 230.915 26.0248 230.867C24.6021 229.95 29.4088 232.988 27.7452 231.961ZM5.86986 129.256C5.06206 131.542 5.66114 129.877 6.16946 128.484C6.20068 128.397 5.92326 129.106 5.86986 129.256ZM5.2966 130.883C4.65812 132.638 3.62472 136.274 4.49001 133.407C4.56819 133.127 5.32204 130.791 5.2966 130.883ZM16.9029 221.695C16.7353 221.491 15.4965 219.65 14.9937 218.802C15.012 218.838 16.3346 220.925 16.9029 221.695ZM1.13296 167.218C1.07246 167.12 1.70188 174.981 1.82325 175.504C1.63553 174.279 1.10488 167.305 1.13296 167.218ZM1.61983 147.064C1.58745 147.249 1.32142 149.966 1.34164 149.89C1.45618 148.544 1.72703 146.184 1.61983 147.064ZM15.9494 110.163C16.0571 110.057 14.7282 111.6 17.7562 107.86C18.2063 107.315 16.6152 109.275 16.7818 109.083C17.1063 108.676 17.3708 108.353 17.5842 108.095C16.1575 109.814 14.8151 111.733 14.6921 111.91C14.0738 112.766 15.8992 110.199 15.9494 110.163ZM31.4149 96.2228C31.8018 95.9657 34.3982 94.5963 35.0206 94.3329C35.1266 94.2861 34.6716 94.5052 35.8792 93.9539C36.8534 93.5269 35.3835 94.1367 37.2948 93.3317C39.2342 92.5571 36.6488 93.6033 36.8182 93.5455C36.9621 93.4822 38.2191 92.9612 39.1066 92.6439C39.6074 92.4615 40.0028 92.3352 39.968 92.3496C39.9463 92.3594 39.5886 92.4765 39.1093 92.6515C38.069 93.0219 36.4128 93.7138 35.8877 93.9577C34.8854 94.4192 36.099 93.8589 34.4408 94.6463C33.407 95.1566 33.9721 94.8563 33.7539 94.964C33.5487 95.022 30.0563 97.0233 31.4203 96.2197C31.4185 96.2207 31.4167 96.2218 31.4149 96.2228ZM17.9711 107.63C17.8635 107.758 17.737 107.91 17.5842 108.095C17.7136 107.938 17.8429 107.782 17.9711 107.63ZM44.9741 237.905C43.8466 237.773 47.1957 238.148 48.4663 238.159C48.4866 238.196 45.1505 237.959 44.9741 237.905ZM19.3245 106.06C21.6157 103.647 19.8769 105.378 17.9711 107.63C18.5684 106.923 18.5827 106.881 19.3245 106.06ZM5.63171 195.971C5.59652 195.835 5.57566 195.748 5.57631 195.736C5.66816 196.095 5.67507 196.127 5.63171 195.971ZM3.8461 188.388C3.2985 185.769 4.39527 191.092 4.41716 191.046C4.41111 191.033 3.86233 188.495 3.8461 188.388ZM6.97427 126.369C6.89011 126.594 8.25022 123.053 6.25669 128.185C7.31819 125.441 6.20285 128.332 6.2255 128.298C6.25223 128.164 8.08883 123.61 8.59103 122.63C8.92157 121.842 7.25678 125.598 6.97657 126.363C6.9758 126.365 6.97504 126.367 6.97427 126.369ZM67.3501 93.6449C66.8274 93.2491 65.0119 92.2522 63.6691 91.8144C64.2961 92.0056 66.2296 92.8205 67.3501 93.6449ZM306.72 33.0633C306.905 35.4222 306.796 37.2264 306.666 38.633C306.479 40.4456 306.161 41.3429 306.167 41.361C306.143 41.3736 306.454 40.5102 306.65 38.6314C306.737 37.7026 306.811 36.5597 306.801 35.2219C306.828 35.025 306.682 32.4567 306.72 33.0633ZM239.14 62.7801C238.242 62.526 241.226 63.3238 243.201 63.7482C243.652 63.85 245.304 64.214 243.41 63.8149C243.476 63.8166 240.557 63.1514 239.14 62.7801ZM20.6032 104.686C21.2625 103.966 23.4286 101.925 24.653 100.942C23.9056 101.542 21.5594 103.671 20.6032 104.686ZM290.06 59.0197C289.146 59.5252 288.521 59.8546 288.682 59.774C289.407 59.416 291.108 58.4405 290.06 59.0197ZM14.5126 112.114C14.4018 112.214 16.7439 109.016 16.9503 108.836C16.4066 109.477 14.552 112.033 14.5126 112.114ZM65.0605 92.3586C64.5271 92.0771 67.3395 93.4432 68.0002 94.1194C67.9916 94.0095 65.4541 92.4479 65.0605 92.3586ZM274.357 64.9425C273.444 65.1603 271.144 65.5834 270.887 65.621C270.574 65.6985 273.947 65.0704 274.357 64.9425ZM241.207 36.088C241.295 36.1899 237.988 34.5572 236.743 33.4768C235.541 32.4978 236.49 33.3405 237.873 34.2708C239.248 35.2189 241.144 36.0718 241.207 36.088ZM298.164 53.3329C300.361 51.3214 297.931 53.5642 298.028 53.4733C299.592 52.2217 302.836 48.4189 300.561 50.9855C300.117 51.4798 298.875 52.716 298.164 53.3329ZM296.062 55.0722C295.822 55.2762 294.099 56.5555 295.59 55.4547C296.277 54.9403 297.326 54.0734 296.062 55.0722ZM228.752 18.373C228.746 17.1647 228.633 18.972 229.199 21.268C229.732 23.5701 230.976 26.2321 231.505 27.2962C231.642 27.5748 231.737 27.7473 231.756 27.7833C231.845 27.9496 231.906 28.0583 231.94 28.1194C232.131 28.5378 233.51 30.4256 233.708 30.6112C233.228 30.0995 232.141 28.5234 232.05 28.3162C232.002 28.2337 231.966 28.1719 231.942 28.1292C231.877 28.0171 231.706 27.7244 231.496 27.3004C230.18 25.1675 228.48 18.8718 228.752 18.373ZM239.989 2.61405C239.679 2.77652 239.416 2.93105 239.188 3.07554C237.318 4.27876 236.999 4.53784 237.184 4.39236C239.906 2.52132 238.137 3.75559 238.223 3.69191C238.308 3.63603 238.744 3.34505 239.183 3.06809C239.69 2.74477 240.25 2.47643 239.98 2.61859C239.983 2.61708 239.986 2.61557 239.989 2.61405ZM229.218 14.1883C229.115 14.2957 228.69 16.877 228.751 16.9906C228.728 18.0604 228.685 16.7427 228.912 15.478C229.13 14.2123 229.59 13.0412 229.218 14.1883ZM46.1458 90.8346C47.9155 90.5751 46.1838 90.8225 45.0066 91.0425C44.9122 91.0641 44.583 91.0939 46.1458 90.8346ZM294.895 55.9491C294.7 56.4501 285.22 61.6274 285.718 61.1815C286.723 61.1338 297.164 54.6139 294.895 55.9491ZM218.227 55.0146C219.957 55.7934 218.065 54.9636 217.153 54.5365C216.812 54.3773 217.803 54.8232 218.227 55.0146ZM11.6525 116.612C10.7022 118.308 10.8719 117.937 11.7145 116.484C11.748 116.427 11.6899 116.547 11.6525 116.612ZM232.266 60.6769C226.12 58.4406 227.534 59.0986 235.61 61.7347C235.359 61.6606 235.107 61.5847 234.852 61.5069C244.29 64.2296 235.455 61.7878 233.2 60.9801C232.323 60.6879 233.048 60.941 232.272 60.679C232.27 60.6783 232.268 60.6776 232.266 60.6769ZM209.235 50.7339C203.659 47.9061 214.319 53.2849 217.516 54.6709C214.475 53.2964 210.558 51.4104 215.89 53.9517C208.057 50.2367 211.365 51.7639 211.036 51.619C210.679 51.4438 209.468 50.8521 209.235 50.7339ZM224.31 57.6505C224.656 57.7977 227.199 58.8279 228.114 59.1676C226.815 58.7099 222.092 56.7403 224.31 57.6505ZM260.804 0.220532C260.571 0.216631 260.012 0.153485 257.842 0.0518786C258.538 0.0730548 259.882 0.146898 260.804 0.220532ZM53.3179 238.094C54.7889 238.008 57.6871 237.536 56.7966 237.667C56.7014 237.715 53.3199 238.12 53.3179 238.094ZM265.652 66.2138C265.341 66.3888 257.098 66.266 259.945 66.3291C260.804 66.5014 268.292 66.0679 265.652 66.2138ZM302.939 48.0378C302.576 48.627 300.762 50.7965 300.702 50.823C300.61 50.9984 302.82 48.3198 302.939 48.0378ZM60.6362 236.874C60.8408 236.887 65.1077 235.482 64.6307 235.603C63.7749 235.977 59.9942 237.066 60.6362 236.874ZM52.6362 90.235C53.013 90.2272 53.5084 90.2377 53.64 90.239C53.9551 90.0939 60.7983 90.8088 58.1833 90.5325C57.7676 90.1846 47.8482 90.2858 46.5874 90.759C46.0883 90.7866 50.296 90.2841 51.3301 90.2907C51.5115 90.284 51.6263 90.2578 52.6331 90.2351C52.6342 90.2351 52.6352 90.235 52.6362 90.235ZM249.488 0.246678C249.183 0.0713039 241.07 1.77782 241.212 2.06139C243.876 1.0036 246.691 0.531801 249.488 0.246678ZM253.668 0.00615969C255.417 -0.0236067 251.305 0.0567939 250.105 0.197677C250.108 0.167299 253.427 -0.0137579 253.668 0.00615969ZM291.249 58.2808C290.542 58.7084 292.727 57.4058 292.241 57.7007C291.93 57.9065 290.346 58.8345 289.82 59.1175C289.676 59.2043 291.33 58.2871 291.786 57.9968C292.45 57.5884 291.804 57.9776 292.522 57.528C294.892 56.0232 296.89 54.5145 298.821 52.7138C298.996 52.5513 297.635 53.8077 299.123 52.4182C299.336 52.205 300.748 50.9141 302.237 48.9828C304.596 45.8067 306.154 42.8121 306.618 38.6285C306.759 37.1087 306.819 35.6067 306.717 33.7741C306.757 33.9929 306.801 37.0542 306.606 38.6273C306.563 39.0738 306.515 39.3841 306.506 39.4517C306.119 45.5009 298.907 53.5666 293.854 56.629C292.582 57.4806 293.206 57.0697 292.654 57.4279C292.214 57.7017 292.737 57.3801 291.249 58.2808ZM52.5369 238.156C53.2445 238.14 55.6852 237.9 57.241 237.611C56.6996 237.71 54.0699 238.089 52.5369 238.156ZM289.181 8.42303C289.883 8.79609 292 10.1253 292.161 10.2461C292.403 10.3664 289.345 8.46734 289.181 8.42303ZM63.7905 111.019C63.7227 111.065 61.8628 111.046 61.799 111.005C60.972 110.904 61.946 111.051 62.8883 111.049C63.8334 111.052 64.7307 110.903 63.7905 111.019ZM45.4592 77.1216C45.7524 75.7107 46.1142 74.2961 46.2505 73.8335C45.9946 74.718 45.4221 77.2864 45.4592 77.1216ZM87.8117 34.6778C87.5169 34.7567 91.6218 33.2815 92.4061 33.0507C92.1153 33.1299 88.0068 34.5914 87.8117 34.6778ZM261.119 0.289305C258.418 0.0804209 259.021 0.154653 257.294 0.0708972C257.015 0.0683663 256.117 -0.0365981 259.072 0.124208C259.604 0.166973 257.519 0.0169209 261.119 0.289305ZM236.939 62.1312C237.606 62.3204 239.65 62.8868 241.052 63.2211C240.738 63.1622 237.927 62.4312 236.939 62.1312ZM68.2248 234.038C69.4276 233.632 74.0326 230.251 72.875 231.066C72.7684 231.28 68.9985 233.753 68.2248 234.038ZM25.5751 100.146C27.435 98.679 23.5633 101.684 22.4798 102.793C22.9683 102.299 25.44 100.223 25.5751 100.146ZM74.1215 41.0554C74.2195 40.9893 76.4213 39.7855 76.5255 39.7407C78.3382 38.7614 72.101 42.1826 74.1215 41.0554ZM44.2924 91.9742C44.1003 91.0807 44.1796 85.1441 44.4126 83.8213C44.115 85.0955 44.2554 93.1004 44.2924 91.9742ZM272.019 1.99579C270.156 1.568 268.365 1.22521 266.63 0.948288C267.006 0.961113 271.83 1.90856 272.019 1.99579ZM82.3652 36.9066C82.4883 36.852 82.6085 36.7996 82.7264 36.7479C82.6033 36.8017 82.4827 36.8547 82.3652 36.9066ZM305.286 26.355C305.779 27.8837 305.669 27.574 305.648 27.4743C305.323 26.3093 304.664 24.6241 305.286 26.355ZM54.3398 238.026C54.8958 237.996 57.5196 237.63 59.0219 237.281C58.5931 237.392 55.5714 237.93 54.3398 238.026ZM203.255 47.6711C201.471 46.7421 208.748 50.4689 210.296 51.2118C210.38 51.2826 203.491 47.8158 203.255 47.6711ZM20.1483 105.075C20.0123 105.167 17.7593 107.724 18.2455 107.188C18.5396 106.825 20.2088 105.003 20.1483 105.075ZM213.984 53.0024C214.687 53.3356 216.301 54.0984 215.73 53.8375C215.004 53.5075 213.794 52.913 213.984 53.0024ZM280.535 63.1444C280.224 63.2913 275.872 64.5601 277.674 64.0517C278.928 63.6972 279.118 63.6133 279.409 63.5234C279.758 63.4829 286.595 60.9647 280.535 63.1444ZM160.818 31.2591C162.473 31.6469 164.461 32.1525 166.175 32.6167C165.48 32.4214 161.524 31.4214 160.818 31.2591ZM30.2973 96.8235C29.7933 96.8101 21.017 103.74 25.9965 99.7993C26.2314 99.497 31.3365 96.1311 30.2973 96.8235ZM261.119 0.289305C261.461 0.318694 261.84 0.35366 262.29 0.400014C261.843 0.354501 261.463 0.319241 261.119 0.289305ZM290.105 8.98268C289.574 8.66108 292.246 10.2895 292.984 10.8398C293.233 10.9669 290.203 9.00004 290.105 8.98268ZM166.308 32.6434C167.299 32.9063 169.083 33.4143 170.298 33.7792C170.092 33.7143 166.738 32.7562 166.308 32.6434ZM95.468 32.0628C97.4157 31.4795 99.8333 30.8549 99.8702 30.8401C99.9114 30.8307 100.007 30.8075 100.166 30.7685C100.327 30.7248 102.438 30.2054 103.363 30.0072C108.792 28.4051 82.3291 35.9323 97.6309 31.4276C96.9062 31.6328 96.1852 31.8446 95.468 32.0628ZM46.0391 99.7225C46.3857 100.828 48.2422 103.381 47.775 102.708C47.293 102.342 45.5539 98.7015 46.0391 99.7225ZM53.895 57.9161C53.6669 58.1655 51.8498 60.7388 51.8333 60.8174C52.8003 59.3029 54.863 56.6889 53.895 57.9161ZM51.4463 106.447C51.9998 106.905 52.7518 107.421 52.6842 107.371C52.0802 106.963 50.5273 105.676 51.4463 106.447ZM266.629 0.99902C267.702 1.15061 271.1 1.80566 271.831 1.98231C271.967 2.01554 272.336 2.10038 273.01 2.26764C273.008 2.26713 273.006 2.26663 273.004 2.26613C274.299 1.39245 299.661 13.3238 282.66 5.34469C282.112 5.13092 282.862 5.40901 280.626 4.56823C280.478 4.51413 280.407 4.47951 279.947 4.31592C278.907 3.87508 273.165 2.21264 271.974 2.01115C271.964 2.00762 271.889 1.98893 271.728 1.9514C270.306 1.57888 265.802 0.848751 266.629 0.99902ZM57.9793 53.2203C57.5351 53.6573 56.1752 55.1465 56.0524 55.3085C56.6914 54.5456 59.0075 52.1758 57.9793 53.2203ZM29.9908 96.9835C28.8752 97.6353 26.242 99.5587 27.0445 98.9862C27.4996 98.5913 31.2455 96.1896 29.9908 96.9835ZM47.3779 69.9847C50.0222 63.091 47.9886 68.3344 48.3836 67.2766C48.0249 68.1598 47.6876 69.0721 47.3779 69.9847ZM233.815 7.22215C234.711 6.40167 233.651 7.34766 232.749 8.32296C232.463 8.62863 233.328 7.66894 233.815 7.22215ZM256.601 29.7452C256.495 30.2589 256.71 29.2611 256.737 28.3629C256.77 27.4659 256.692 26.6875 256.754 27.6816C256.798 27.7757 256.655 29.6763 256.601 29.7452ZM229.508 22.1654C229.299 21.3772 229.044 20.8804 228.829 18.5657C229.286 21.9634 228.724 18.8469 229.508 22.1654ZM99.8486 30.8444C99.8614 30.8416 99.8722 30.8392 99.8702 30.8401C99.856 30.8433 99.8498 30.8445 99.8486 30.8444ZM57.3485 109.939C58.1807 110.338 60.6702 110.936 59.932 110.744C59.8514 110.762 57.6877 110.107 57.3485 109.939ZM271.831 1.98231C271.71 1.95325 271.772 1.96599 271.974 2.01115C271.983 2.01451 271.93 2.00363 271.831 1.98231ZM46.8475 101.365C46.8016 101.493 45.2617 97.9216 45.3087 97.7316C44.679 95.5741 45.8932 100.043 46.8475 101.365ZM12.129 115.646C12.0263 115.818 12.7088 114.714 13.1454 114.024C13.4771 113.493 12.5093 114.992 12.129 115.646ZM232.747 29.2397C233.467 30.3075 234.722 31.6085 234.963 31.8367C234.308 31.2747 232.697 29.2479 232.747 29.2397ZM256.069 31.6711C255.88 32.1822 255.555 32.9154 255.052 33.6652C254.167 35.0653 252.522 36.3229 251.144 36.8074C251.107 36.8706 253.881 35.6533 255.047 33.6616C255.587 32.8612 255.917 32.0782 256.069 31.6711ZM263.233 0.534003C263.347 0.531708 266.471 0.961194 266.047 0.900311C265.427 0.777002 262.345 0.422998 263.233 0.534003ZM15.5027 110.582C16.3295 109.455 14.3915 112.025 13.6065 113.29C13.1788 113.922 15.3375 110.757 15.5027 110.582ZM65.1118 110.864C65.9759 110.624 65.3479 110.845 64.3934 110.993C63.439 111.15 62.156 111.088 61.8465 111.056C62.6794 111.17 64.5015 111.054 65.1118 110.864ZM50.9325 62.1762C50.7084 62.5404 50.5156 62.8656 50.3484 63.1541C48.3787 66.8623 49.6871 64.4112 50.1392 63.5706C50.1611 63.5307 50.2515 63.3631 50.3638 63.163C50.6125 62.7166 50.9832 62.0932 50.9325 62.1762ZM77.4996 223.98C77.5557 223.581 77.4919 224.128 77.3185 224.802C77.153 225.479 76.8327 226.266 76.7551 226.442C76.7043 226.682 77.4904 224.505 77.4996 223.98ZM127.983 27.0867C127.736 27.0903 127.491 27.0946 127.249 27.0996C127.43 27.0955 127.669 27.0908 127.983 27.0867ZM70.7104 97.4061C71.4378 99.2613 71.3385 100.204 71.3855 100.64C71.3976 101.067 71.3989 101.053 71.3965 101.226C71.3994 102.003 71.1525 103.717 70.6982 105.099C71.186 103.522 71.4666 101.897 71.3564 100.28C71.4466 100.858 71.3513 103.655 70.2529 106.313C69.2204 109.475 65.8974 110.692 65.8283 110.657C65.6701 110.709 66.432 110.494 67.1527 110.074C67.885 109.669 68.5185 109.043 68.5516 109.006C68.6597 108.905 69.0368 108.526 69.2266 108.264C69.3109 108.147 69.8532 107.449 70.2818 106.324C70.846 104.88 71.3872 102.905 71.4026 101.125C71.4515 99.3419 70.9254 97.8833 70.7104 97.4061ZM46.3084 73.3797C46.5636 72.4726 46.6503 72.2295 46.7755 71.8071C46.8185 71.665 46.8159 71.6376 46.9658 71.1565C46.7328 71.8908 46.5139 72.6319 46.3084 73.3797ZM65.6632 92.5359C65.1482 92.2892 66.0747 92.683 67.0428 93.3076C68.0252 93.9152 68.9604 94.8472 69.0079 94.912C69.2959 95.2366 68.7836 94.6237 67.9813 93.9918C67.1899 93.3496 66.086 92.7426 65.6632 92.5359ZM47.9343 102.955C47.9899 103.157 50.7659 105.995 50.7966 105.915C50.264 105.488 48.5169 103.728 47.8913 102.893C47.5626 102.475 47.4704 102.356 47.8874 102.896C47.9024 102.915 47.918 102.935 47.9343 102.955ZM47.1585 70.5604C47.5807 69.2169 48.5786 66.7696 48.4614 67.0417C48.4606 67.0436 48.4598 67.0456 48.459 67.0475C47.9827 68.1938 47.5467 69.3824 47.1585 70.5604ZM18.4783 106.823C16.7834 108.792 17.5675 107.854 19.1085 106.132C19.567 105.612 18.7622 106.498 18.4783 106.823ZM13.4519 113.463C12.9535 114.021 9.3362 120.543 9.92283 119.571C10.083 119.196 12.1767 115.446 12.3093 115.292C12.469 115.037 11.7555 116.208 12.961 114.26C12.8843 114.369 13.5869 113.255 13.4519 113.463ZM17.0803 108.468C15.4619 110.481 15.1623 110.99 16.3353 109.432C16.8008 108.829 17.3147 108.183 17.0803 108.468ZM24.4702 100.933C23.7488 101.515 21.8879 103.17 20.709 104.403C22.3139 102.774 24.0241 101.247 25.8305 99.8456C26.0344 99.6797 25.096 100.41 24.4654 100.937C24.467 100.936 24.4686 100.935 24.4702 100.933ZM249.352 19.6833C250.427 19.7217 249.719 19.6467 248.735 19.7234C247.743 19.7941 246.54 20.1684 246.436 20.2065C245.842 20.3667 248.377 19.5912 249.352 19.6833ZM69.622 211.743C69.0851 211.558 68.723 211.405 67.5046 211.138C68.735 211.411 69.9526 211.815 71.0911 212.365C71.9827 212.776 70.2287 211.924 69.622 211.743ZM64.9043 210.7C65.0839 210.73 64.1068 210.552 66.4142 210.866C67.184 211.013 65.4742 210.648 63.3413 210.635C61.2108 210.591 58.7079 210.972 57.9544 211.113C59.6107 210.743 63.3662 210.507 64.9043 210.7ZM50.2812 213.218C50.1827 213.229 53.2472 212.123 53.5992 212.049C55.4879 211.466 50.7585 212.971 50.2812 213.218ZM60.2968 210.653C58.7798 210.81 62.1386 210.435 63.1543 210.501C63.2464 210.475 60.5116 210.596 60.2968 210.653ZM252.479 35.5518C251.805 35.9955 251.094 36.2841 250.86 36.3759C250.617 36.4515 250.902 36.4501 251.997 35.8637C252.103 35.8098 252.539 35.5166 252.479 35.5518ZM53.2632 212.127C54.7103 211.677 51.4828 212.694 50.5718 213.08C50.4747 213.093 53.0425 212.174 53.2632 212.127ZM251.472 36.0654C250.499 36.4961 250.146 36.5419 250.109 36.5742C250.068 36.5963 250.316 36.5419 250.445 36.5016C251.472 36.3681 254.079 34.4968 254.611 33.369C254.686 33.2563 254.744 33.1632 254.785 33.0962C254.727 33.1903 254.668 33.2809 254.61 33.3683C253.066 35.5073 252.114 35.6776 251.927 35.8495C251.685 35.9725 251.914 35.8523 251.472 36.0654ZM241.838 35.7131C239.965 34.9793 244.752 36.8815 245.778 36.7961C244.778 36.7172 242.354 35.9669 241.838 35.7131ZM232.616 28.0621C232.473 27.8255 232.261 27.4555 232.051 27.0274C231.427 25.7856 230.715 24.0579 230.58 23.6802C230.848 24.4219 231.519 25.9776 232.047 27.0297C232.3 27.5457 232.537 27.9359 232.616 28.0621ZM231.526 25.8763C230.847 24.3258 230.667 23.9637 231.456 25.7472C231.487 25.8159 231.552 25.9331 231.526 25.8763ZM229.407 16.76C229.501 15.6687 229.735 14.4357 229.444 16.1899C229.384 16.7155 229.4 16.8758 229.407 16.76ZM248.909 36.7478C247.359 36.9118 245.333 36.8718 248.673 36.7941C247.508 36.9226 246.321 36.8512 245.159 36.6416C249.531 37.1852 249.213 36.629 250.417 36.4314C252.058 35.8465 251.892 35.8037 251.596 35.9977C252.159 35.7224 253.551 34.9116 254.577 33.3462C255.916 31.4415 256.394 28.5734 256.085 26.6396C256.367 28.5212 255.976 31.2979 254.561 33.3357C253.709 34.6212 252.527 35.5292 251.469 36.0167C250.686 36.3879 249.864 36.6149 249.13 36.7271C247.945 36.8757 248.995 36.7389 248.915 36.747C248.913 36.7473 248.911 36.7475 248.909 36.7478ZM235.592 6.4242C238.164 4.43462 236.496 5.62851 235.094 6.83304C235.033 6.88501 235.534 6.46965 235.592 6.4242ZM49.1338 213.558C53.2764 212.102 50.1132 212.579 59.1279 210.677C55.2935 211.35 58.9293 210.708 58.1787 210.847C57.5506 210.943 55.3649 211.441 56.6507 211.161C54.8875 211.344 47.8465 214.014 47.5635 214.273C47.5664 214.272 47.5694 214.27 47.5723 214.269C47.3813 214.359 47.8497 214.097 49.1338 213.558ZM232.672 28.0098C232.459 27.6257 232.298 27.3297 232.126 26.9906C231.876 26.4898 231.567 25.9015 231.093 24.7371C230.587 23.5211 231.124 25.0118 232.107 27C233.173 29.3319 235.664 31.7297 236.191 32.1633C234.032 30.231 233.577 29.3329 233.579 29.3989C233.605 29.4372 234.244 30.2933 235.072 31.1266C236.735 32.7909 239.006 34.4192 235.881 31.8636C238.398 34.0408 239.004 34.144 238.841 34.0946C238.707 34.0108 237.994 33.5288 238.424 33.8087C239.299 34.4974 242.736 36.0273 242.588 35.8847C242.586 35.884 242.584 35.8833 242.582 35.8826C240.423 35.1041 238.403 33.932 236.627 32.4766C238.369 33.9093 234.655 30.9845 233.8 29.6071C233.393 29.0998 233.014 28.5662 232.672 28.0098ZM242.67 35.9597C242.392 36.0318 237.957 33.6916 238.288 33.7666C238.558 33.9629 240.215 34.9954 241.613 35.5596C243.002 36.1352 244.03 36.3998 242.67 35.9597ZM255.731 25.0982C256.353 26.79 256.138 29.5988 255.827 30.5157C256.377 28.798 256.108 25.9924 255.731 25.0982ZM267.566 1.74423C269.849 2.09663 262.816 1.00595 264.849 1.32682C264.944 1.32998 267.465 1.71705 267.566 1.74423ZM230.506 23.2669C229.796 21.0441 230.062 22.1172 230.664 23.7389C230.699 23.8323 230.54 23.3685 230.506 23.2669ZM52.4746 212.288C52.5668 212.13 58.8088 210.523 59.9653 210.559C59.2892 210.442 52.2468 212.228 52.4746 212.288ZM254.251 22.4022C256.779 25.1376 256.015 30.3598 255.732 30.7373C255.582 31.2364 255.802 30.4493 255.766 30.5627C255.735 30.6891 255.351 32.112 254.524 33.3105C253.73 34.5473 252.517 35.3806 252.407 35.444C252.248 35.5497 253.088 35.0162 252.141 35.6423C252.673 35.3236 253.711 34.5781 254.541 33.3221C257.06 30.1037 255.744 24.385 255.38 24.2164C255.3 24.03 255.554 24.6418 255.583 24.7541C255.559 24.8996 255.69 24.3187 254.255 22.4068C254.253 22.4053 254.252 22.4038 254.251 22.4022ZM255.279 31.9637C255.603 31.1648 255.234 32.2929 254.538 33.3202C254.118 33.9578 253.585 34.5097 253.318 34.7476C252.27 35.5941 253.738 34.5695 254.532 33.316C254.975 32.6622 255.253 32.0197 255.279 31.9637ZM247.944 36.7999C247.493 36.9819 243.496 36.3182 243.193 36.0939C245.006 36.8663 248.966 36.8185 247.944 36.7999ZM237.655 4.92266C238.067 4.62893 238.819 4.1187 239.555 3.65826C240.284 3.19478 241.127 2.8428 241.177 2.81631C240.835 2.96011 240.101 3.30371 239.552 3.65461C238.616 4.2396 237.734 4.86049 237.655 4.92266ZM73.6149 213.413C72.1528 212.326 75.5861 214.817 76.1822 215.973C76.1994 216.001 75.6882 215.29 75.0513 214.657C74.4183 214.01 73.675 213.457 73.6149 213.413ZM230.444 22.8695C230.382 22.5929 229.083 19.3489 229.609 15.9039C230.044 12.4256 232.536 9.55335 233.118 8.92015C232.545 9.53712 230.076 12.3705 229.613 15.8074C229.06 19.2109 230.314 22.4271 230.369 22.679C230.422 22.8371 230.469 22.9451 230.444 22.8695ZM251.32 35.9897C252.348 35.507 252.912 35.007 253.022 34.9234C253.482 34.5473 254.067 33.921 254.486 33.2852C255.065 32.4265 255.352 31.6435 255.215 31.9918C255.039 32.3798 254.799 32.8344 254.493 33.2895C253.088 35.7075 249.519 36.6628 251.32 35.9897ZM238.439 4.44256C242.056 2.0291 235.129 6.70589 236.085 6.15846C236.142 6.08922 238.035 4.69025 238.439 4.44256ZM230.941 24.2057C231.041 24.4501 231.475 25.5283 232.184 26.962C233.796 30.924 239.966 34.9666 241.381 35.343C239.716 34.6008 238.408 33.8649 236.507 32.3094C236.002 31.8801 236.135 31.9971 236.081 31.9512C235.233 31.177 235.868 31.7543 235.358 31.2662C235.181 31.1126 233.161 29.0807 232.175 26.9666C231.279 25.168 230.714 23.6307 230.941 24.2057ZM251.893 35.6909C252.145 35.5552 253.519 34.7466 254.472 33.2755C255.867 31.3229 256.058 28.5448 256.038 28.3859C256.028 26.8574 256.332 30.7327 254.479 33.28C253.491 34.7981 252.082 35.591 251.893 35.6909ZM230.544 23.1045C230.783 23.8225 231.674 25.9165 232.201 26.9536C232.547 27.6338 232.67 27.8695 232.193 26.9578C232.097 26.7648 231.978 26.5227 231.837 26.2257C231.653 25.8489 230.935 24.244 230.544 23.1045ZM238.06 4.72362C238.139 4.66911 238.785 4.22252 239.591 3.71637C240.665 3.02231 242.2 2.49467 242.255 2.47241C241.971 2.56949 240.629 3.04621 239.588 3.71177C238.147 4.61654 236.94 5.51479 238.06 4.72362ZM236.186 6.13349C236.273 6.07341 235.424 6.69406 237.108 5.41516C237.261 5.31909 237.482 5.0946 239.601 3.73132C239.645 3.70317 239.691 3.6746 239.739 3.64563C240.156 3.38104 240.942 3.00362 240.886 3.0319C240.505 3.20282 240.038 3.43737 239.592 3.71765C236.617 5.45979 232.656 9.20032 236.186 6.13349ZM252.01 35.6113C251.643 35.8078 252.532 35.3331 253.199 34.7244C253.476 34.4512 253.003 35.0194 252.01 35.6113ZM251.614 0.84887C248.973 0.95541 257.279 0.669908 257.697 0.816759C257.424 0.743322 251.89 0.768639 251.614 0.84887ZM76.6048 216.458C76.6037 216.456 76.6025 216.454 76.6013 216.452C77.7674 218.456 77.0301 217.222 77.0954 217.311C78.2011 219.53 78.1604 220.509 78.2552 220.874C78.3081 221.258 78.2988 221.123 78.3344 221.509C78.361 223.155 78.5319 222.941 77.8393 225.64C78.7909 221.129 78.0167 225.255 77.9062 225.365C77.7984 225.612 78.3538 224.139 78.3359 222.241C78.3709 220.337 77.6054 218.168 77.0178 217.184C76.9396 217.044 77.1887 217.489 77.3712 217.901C77.5547 218.311 77.6845 218.674 77.5325 218.293C76.8022 215.551 70.4688 210.065 76.6048 216.458ZM253.691 34.2352C253.824 34.0874 254.121 33.7571 254.452 33.2623C256.082 31.3403 256.072 26.5987 256.033 28.2488C256.112 28.4454 255.686 31.7177 254.463 33.2694C253.844 34.1768 253.32 34.6107 253.691 34.2352ZM100.361 29.9519C102.203 29.483 97.928 30.5412 97.1516 30.7878C96.7644 30.8938 99.5464 30.148 100.361 29.9519ZM71.8412 41.4526C69.8919 42.6259 67.9475 43.9657 70.2949 42.4422C70.542 42.2791 72.0668 41.3191 71.8412 41.4526ZM212.596 51.4778C210.497 50.4439 210.628 50.5311 212.149 51.2728C212.705 51.5425 212.663 51.5107 212.596 51.4778ZM127.439 26.3478C127.202 26.3432 124.481 26.4338 124.581 26.4417C125.586 26.3884 128.963 26.326 127.439 26.3478ZM213.274 51.8007C212.027 51.2038 214.132 52.2435 215.711 52.9626C214.919 52.5946 213.404 51.8641 213.274 51.8007ZM229.583 18.471C229.399 17.3437 229.808 14.1256 230.735 12.5031C230.789 12.4218 230.214 13.4968 229.885 14.8608C229.531 16.2153 229.526 17.8185 229.583 18.471ZM80.3096 36.9738C78.3737 37.8881 82.5318 35.963 82.1491 36.1411C82.0926 36.1608 80.3886 36.9317 80.3096 36.9738ZM284.933 60.6224C283.536 61.2608 287.981 59.2516 286.754 59.7964C286.697 59.8311 285.011 60.5959 284.933 60.6224ZM301.851 48.1585C301.246 49.156 297.759 52.6812 299.119 51.3131C299.382 51.1343 301.847 48.2777 301.851 48.1585ZM78.3532 221.645C78.3299 221.316 78.4265 222.106 78.3623 223.046C78.313 223.987 78.0478 225.051 77.9651 225.311C77.9815 225.534 78.5231 222.512 78.3532 221.645ZM198.998 44.5775C197.914 44.022 195.086 42.6334 194.576 42.4031C195.922 43.0339 199.355 44.7682 198.998 44.5775ZM89.315 33.271C87.5585 33.8712 84.6044 35.0667 85.3427 34.7906C88.6125 33.5089 84.9265 34.89 89.315 33.271ZM220.364 55.0607C219.486 54.6715 218.778 54.3699 218.88 54.4174C219.865 54.8712 221.229 55.4493 220.364 55.0607ZM152.437 28.6577C152.388 28.6358 149.311 28.0637 149.721 28.1471C149.854 28.1694 152.485 28.67 152.437 28.6577ZM260.586 1.02974C262.008 1.14265 257.668 0.819479 256.383 0.823557C255.755 0.770952 260.403 0.977186 260.586 1.02974ZM245.865 63.4457C246.007 63.4849 241.257 62.461 243.124 62.8789C243.588 62.9911 245.817 63.4447 245.865 63.4457ZM290.726 57.6577C289.318 58.4649 291.61 57.2332 293.706 55.7735C295.813 54.3312 297.69 52.6544 296.315 53.8064C296.19 54.052 291.023 57.5999 290.726 57.6577ZM305.215 41.5992C305.027 42.1177 305.2 41.8727 305.641 39.6441C305.7 39.3517 305.447 40.7244 305.492 40.4846C305.504 40.4282 305.705 39.5714 305.8 38.5514C305.957 37.024 305.953 35.2889 305.946 35.147C305.942 34.8933 305.934 35.1919 305.929 34.935C305.951 34.6288 305.779 31.5677 305.417 29.9842C304.776 27.0134 304.524 26.747 304.474 26.5069C304.237 25.8156 303.818 24.6698 303.163 23.3537C300.167 16.3532 290.469 9.46092 285.025 7.2159C289.802 9.45106 294.108 12.1777 297.797 15.8964C296.848 14.6981 302.767 21.7372 299.341 17.5912C299.974 18.3319 302.634 21.4596 304.233 25.7765C305.931 30.0774 306.17 35.2932 305.809 38.5522C305.655 40.1523 305.315 41.2452 305.217 41.5933C305.217 41.5953 305.216 41.5972 305.215 41.5992ZM64.4524 46.4533C65.5168 45.5526 59.9731 50.0468 59.604 50.5459C60.2546 49.865 64.2997 46.5156 64.4524 46.4533ZM93.6516 31.7556C94.2877 31.5633 94.8605 31.318 98.2105 30.4136C98.2136 30.4128 98.2166 30.412 98.2197 30.4112C99.1979 30.1537 98.0858 30.4568 98.2654 30.4112C98.3279 30.3885 101.392 29.6131 98.8514 30.2712C94.9938 31.3237 98.4833 30.3429 96.4256 30.9179C96.1683 30.9728 92.3149 32.1754 92.5424 32.1204C92.5648 32.1119 93.7238 31.7392 93.9175 31.6822C94.6423 31.463 94.2922 31.5797 94.3943 31.5485C94.7122 31.4081 100.872 29.7033 101.789 29.5465C102.057 29.3813 91.9662 32.2087 91.6109 32.4497C91.3661 32.5305 91.4621 32.4753 91.2087 32.5586C91.0748 32.583 87.1087 34.0192 86.6028 34.2374C86.454 34.2946 86.3404 34.3385 86.2571 34.3707C86.8457 34.1341 83.318 35.5663 83.4221 35.5308C83.4848 35.4922 85.9066 34.4978 86.0002 34.4698C86.0387 34.4548 86.0722 34.4419 86.1035 34.4297C85.5749 34.5458 93.9582 31.5889 92.1483 32.2263C94.604 31.4268 91.8021 32.3508 93.6516 31.7556ZM105.652 28.6649C105.392 28.7198 105.132 28.7756 104.872 28.8321C109.29 27.8991 114.45 27.1154 119.633 26.6849C120.949 26.579 119.434 26.6819 121.159 26.5563C122.542 26.4588 124.075 26.3995 123.323 26.4404C123.139 26.4447 120.322 26.6118 118.916 26.7492C114.766 27.1558 115.82 27.0928 115.577 27.1108C115.308 27.1375 112.705 27.4584 111.289 27.6848C107.733 28.2587 106.109 28.5338 101.314 29.6448C104.074 28.9945 102.556 29.3089 105.652 28.6649ZM266.189 65.3136C266.36 65.3083 269.263 65.0061 270.309 64.8187C270.148 64.8673 267.249 65.2478 266.189 65.3136ZM0.1977 167.079C0.227619 167.991 -0.00589225 161.194 0.0467995 162.985C0.0463737 163.375 0.144503 166.229 0.1977 167.079ZM2.57647 136.693C2.78964 135.803 1.9023 139.381 1.93873 139.376C1.93049 139.37 2.53206 136.809 2.57647 136.693ZM163.414 31.0271C163.583 31.0645 166.001 31.6964 166.075 31.7212C167.678 32.1369 159.707 30.1021 163.414 31.0271ZM19.8532 104.162C17.5947 106.399 24.4682 99.7273 22.3502 101.748C22.2302 101.824 19.9435 104.035 19.8532 104.162ZM30.2491 95.8633C29.5787 96.2279 26.7598 98.132 26.7434 98.1797C26.6701 98.1988 29.9042 96.036 30.2491 95.8633ZM220.975 55.2787C220.667 55.137 224.689 56.8817 226.142 57.4441C226.478 57.605 222.39 55.915 220.975 55.2787ZM195.873 42.9419C198.302 44.1238 200.28 45.1407 201.865 45.9705C209.12 49.7236 208.153 49.2423 201.859 45.9812C199.99 45.0025 197.649 43.8022 194.866 42.4626C194.848 42.4446 194.814 42.4285 195.873 42.9419ZM217.3 53.6175C216.671 53.3403 214.737 52.434 213.474 51.8252C213.7 51.9302 216.356 53.1908 217.3 53.6175ZM0.830315 175.148C0.665616 173.986 0.265204 168.79 0.348827 169.711C0.337695 169.927 0.860934 175.58 0.830315 175.148ZM164.938 31.4051C164.526 31.2642 169.95 32.7604 170.357 32.9104C172.024 33.3995 165.389 31.4822 164.938 31.4051ZM246.057 63.419C247.025 63.6033 249.789 64.1025 251.574 64.4081C250.759 64.2766 247.558 63.7187 246.057 63.419ZM233.485 60.1308C233.593 60.1739 235.982 60.9339 236.092 60.9599C238.056 61.5936 231.275 59.4291 233.485 60.1308ZM74.5779 213.964C74.6698 213.992 76.0457 215.443 76.0565 215.523C76.5861 216.239 75.9874 215.371 75.2754 214.641C74.5639 213.905 73.7929 213.314 74.5779 213.964Z" fill="#6B5D75"/>
</svg>
